<svg xmlns="http://www.w3.org/2000/svg"  viewBox="0 0 30 30" width="160px" height="160px"><path fill="#b6c9d6" d="M2.931,28.5c-0.382,0-0.742-0.149-1.012-0.419c-0.558-0.558-0.558-1.466,0-2.024l14.007-13.353 l1.375,1.377L3.935,28.089C3.673,28.351,3.313,28.5,2.931,28.5z"/><path fill="#788b9c" d="M15.917,13.403l0.685,0.686L3.589,27.727C3.413,27.903,3.18,28,2.931,28 c-0.249,0-0.482-0.097-0.658-0.273c-0.363-0.363-0.363-0.953-0.017-1.3L15.917,13.403 M15.934,12.005L1.565,25.704 c-0.754,0.754-0.754,1.977,0,2.731C1.943,28.811,2.437,29,2.931,29c0.494,0,0.988-0.189,1.365-0.566L18,14.073L15.934,12.005 L15.934,12.005z"/><g><path fill="#d1edff" d="M19,20.5c-5.238,0-9.5-4.262-9.5-9.5s4.262-9.5,9.5-9.5s9.5,4.262,9.5,9.5S24.238,20.5,19,20.5z"/><path fill="#788b9c" d="M19,2c4.963,0,9,4.037,9,9s-4.037,9-9,9s-9-4.037-9-9S14.037,2,19,2 M19,1C13.477,1,9,5.477,9,11 s4.477,10,10,10s10-4.477,10-10S24.523,1,19,1L19,1z"/></g></svg>